<?xml version="1.0" standalone="no"?>
<!DOCTYPE svg PUBLIC "-//W3C//DTD SVG 20010904//EN"
 "http://www.w3.org/TR/2001/REC-SVG-20010904/DTD/svg10.dtd">
<svg version="1.0" xmlns="http://www.w3.org/2000/svg"
 width="260.000000pt" height="260.000000pt" viewBox="0 0 260.000000 260.000000"
 preserveAspectRatio="xMidYMid meet">
<metadata>
Created by potrace 1.11, written by Peter Selinger 2001-2013
</metadata>
<g transform="translate(0.000000,260.000000) scale(0.100000,-0.100000)"
fill="#000000" stroke="none">
<path d="M1816 2025 c-238 -45 -447 -247 -477 -461 -17 -116 -5 -332 20 -389
52 -118 155 -222 285 -290 81 -42 118 -52 232 -64 159 -17 362 11 517 69 l57
21 1 122 c1 212 15 250 100 263 23 4 39 12 39 20 0 12 -50 14 -286 14 -224 0
-285 -3 -282 -12 3 -7 23 -16 47 -19 23 -3 54 -15 69 -26 33 -25 43 -87 40
-247 l-3 -109 -40 -15 c-26 -10 -76 -16 -140 -16 -82 -1 -108 3 -147 21 -152
70 -221 228 -221 508 0 277 72 446 225 527 36 19 59 22 143 23 97 0 104 -2
177 -38 94 -46 170 -125 219 -226 54 -112 59 -101 59 134 0 171 -2 205 -14
205 -8 0 -17 -8 -20 -18 -11 -32 -46 -62 -74 -62 -14 0 -73 16 -130 36 -87 30
-120 36 -210 40 -69 2 -135 -2 -186 -11z"/>
<path d="M20 1997 c0 -10 15 -16 46 -20 61 -7 96 -34 107 -83 4 -21 6 -244 5
-494 -4 -544 5 -505 -120 -525 -24 -4 -38 -11 -38 -20 0 -13 44 -15 295 -15
245 0 295 2 295 14 0 15 -30 26 -72 26 -15 0 -40 11 -55 24 l-28 24 -3 222 -3
221 42 -3 c41 -3 45 -6 99 -83 31 -44 114 -162 185 -263 l128 -182 184 0 c164
0 184 2 181 16 -2 9 -20 22 -42 29 -21 8 -52 30 -68 50 -45 53 -318 445 -318
455 0 4 24 16 53 26 74 26 158 111 177 179 49 173 -25 317 -198 383 l-67 26
-392 4 c-337 3 -393 1 -393 -11z m630 -63 c66 -20 123 -73 139 -129 6 -22 11
-77 11 -121 0 -70 -4 -89 -28 -135 -42 -80 -87 -102 -219 -107 l-103 -4 0 256
0 256 73 0 c40 0 98 -7 127 -16z"/>
<path d="M318 683 c16 -6 16 -110 0 -116 -7 -3 -1 -6 13 -6 23 -1 25 2 21 29
-5 38 7 38 33 0 11 -16 28 -30 38 -30 15 0 13 4 -10 24 -25 22 -26 26 -14 49
22 41 9 57 -46 56 -26 0 -42 -3 -35 -6z m70 -25 c-5 -34 -38 -37 -38 -4 0 20
5 26 21 26 15 0 20 -5 17 -22z"/>
<path d="M540 671 c0 -11 5 -23 10 -26 18 -11 11 -35 -11 -35 -16 0 -19 5 -15
23 3 12 -1 6 -10 -13 -9 -19 -21 -41 -26 -47 -8 -10 -5 -13 10 -13 15 0 20 5
16 15 -5 12 2 15 31 15 29 0 36 -3 31 -15 -4 -11 2 -15 20 -15 23 0 24 2 11
15 -9 8 -23 37 -32 65 -17 50 -35 66 -35 31z"/>
<path d="M668 683 c7 -3 12 -25 12 -58 0 -33 -5 -55 -12 -58 -7 -3 3 -5 22 -5
19 0 29 2 23 5 -7 2 -13 16 -13 29 0 20 5 24 30 24 25 0 30 -4 30 -24 0 -13
-6 -27 -12 -29 -7 -3 -2 -6 12 -6 24 -1 25 1 25 64 0 63 -1 65 -25 64 -14 0
-19 -3 -12 -6 6 -2 12 -16 12 -29 0 -20 -5 -24 -31 -24 -29 0 -31 2 -27 30 4
27 2 30 -21 29 -14 0 -20 -3 -13 -6z"/>
<path d="M858 683 c6 -2 12 -14 13 -26 0 -12 3 -16 6 -9 3 8 16 -10 30 -40 22
-47 26 -51 35 -34 8 14 7 21 -4 27 -8 4 -23 26 -33 49 -13 29 -24 40 -39 39
-12 0 -15 -3 -8 -6z"/>
<path d="M972 665 c-9 -20 -9 -23 3 -18 11 4 15 -3 15 -29 0 -19 -5 -39 -12
-46 -9 -9 -5 -12 18 -11 16 0 23 3 17 6 -8 3 -13 25 -13 58 0 33 5 55 13 58 6
3 3 6 -9 6 -13 1 -25 -8 -32 -24z"/>
<path d="M1111 659 c-14 -42 -13 -50 2 -21 l13 23 12 -25 c11 -25 10 -26 -18
-26 -17 0 -30 -4 -30 -10 0 -5 16 -10 36 -10 28 0 35 -3 30 -15 -4 -11 2 -15
22 -15 16 0 22 3 15 8 -6 4 -21 33 -33 65 -12 31 -25 57 -30 57 -4 0 -13 -14
-19 -31z"/>
<path d="M1367 672 c-26 -28 -22 -78 7 -97 36 -24 80 -16 85 15 1 14 8 28 15
32 6 5 0 8 -15 8 -23 0 -25 -3 -21 -30 4 -25 1 -30 -16 -30 -45 0 -67 56 -38
96 13 17 18 18 45 7 17 -6 31 -8 31 -3 0 8 -35 20 -61 20 -9 0 -23 -8 -32 -18z"/>
<path d="M1545 625 c0 -63 1 -65 25 -64 14 0 19 3 13 6 -8 3 -13 25 -13 58 0
33 5 55 13 58 6 3 1 6 -13 6 -24 1 -25 -1 -25 -64z"/>
<path d="M1655 625 l0 -65 48 0 c26 0 47 4 47 9 0 6 -16 7 -35 4 l-35 -6 0 56
c0 35 5 57 13 60 6 3 1 6 -13 6 -24 1 -25 -1 -25 -64z"/>
<path d="M1815 625 l0 -65 48 0 c26 0 47 4 47 9 0 6 -16 7 -35 4 l-35 -6 0 56
c0 35 5 57 13 60 6 3 1 6 -13 6 -24 1 -25 -1 -25 -64z"/>
<path d="M2010 670 c-9 -16 -8 -20 5 -20 8 0 15 -2 15 -4 0 -2 3 -11 6 -20 4
-12 0 -16 -15 -16 -13 0 -21 6 -21 18 -1 9 -8 1 -16 -18 -8 -19 -20 -38 -27
-42 -8 -5 -4 -8 10 -8 16 0 21 4 17 15 -5 12 2 15 31 15 29 0 36 -3 31 -15 -4
-11 1 -15 18 -15 l23 0 -23 47 c-13 25 -24 52 -24 59 0 23 -19 25 -30 4z"/>
<path d="M2174 653 c19 -21 46 -51 59 -68 l25 -30 4 68 c3 62 1 67 -17 67 -15
0 -16 -3 -7 -9 8 -5 12 -23 10 -47 l-3 -39 -34 48 c-20 27 -42 47 -53 47 -15
0 -12 -7 16 -37z"/>
<path d="M860 570 c-12 -8 -10 -10 8 -10 13 0 20 4 17 10 -7 12 -6 12 -25 0z"/>
<path d="M1065 570 c-3 -5 3 -10 15 -10 12 0 18 5 15 10 -3 6 -10 10 -15 10
-5 0 -12 -4 -15 -10z"/>
<path d="M2153 563 c9 -2 23 -2 30 0 6 3 -1 5 -18 5 -16 0 -22 -2 -12 -5z"/>
</g>
</svg>
