<?xml version="1.0" standalone="no"?>
<!DOCTYPE svg PUBLIC "-//W3C//DTD SVG 20010904//EN"
 "http://www.w3.org/TR/2001/REC-SVG-20010904/DTD/svg10.dtd">
<svg version="1.0" xmlns="http://www.w3.org/2000/svg"
 width="260.000000pt" height="260.000000pt" viewBox="0 0 260.000000 260.000000"
 preserveAspectRatio="xMidYMid meet">
<metadata>
Created by potrace 1.11, written by Peter Selinger 2001-2013
</metadata>
<g transform="translate(0.000000,260.000000) scale(0.100000,-0.100000)"
fill="#000000" stroke="none">
<path d="M1812 2025 c-104 -16 -203 -64 -288 -137 -122 -107 -169 -192 -191
-347 -13 -97 -13 -122 0 -223 22 -167 73 -258 201 -355 127 -97 246 -133 441
-133 100 0 140 5 245 31 69 16 145 40 170 52 l45 22 5 157 c5 149 6 158 29
182 15 16 41 29 63 32 23 4 38 12 38 20 0 12 -49 14 -281 14 -262 0 -280 -1
-277 -17 2 -12 14 -19 38 -21 99 -8 110 -32 110 -234 l0 -138 -27 -6 c-16 -3
-44 -10 -63 -15 -104 -27 -247 7 -314 74 -97 98 -130 209 -129 442 0 285 64
440 211 512 50 25 68 28 152 28 86 0 101 -3 155 -30 82 -41 181 -142 226 -230
58 -114 64 -102 64 130 0 216 -4 229 -47 165 -32 -48 -72 -50 -172 -10 -126
50 -244 60 -404 35z"/>
<path d="M40 1995 c0 -10 10 -15 30 -15 43 0 96 -24 110 -49 17 -33 19 -958 1
-989 -15 -28 -67 -52 -111 -52 -18 0 -30 -5 -30 -13 0 -11 54 -15 275 -20 151
-3 284 -3 295 0 50 13 4 43 -66 43 -31 0 -73 39 -75 70 0 14 -1 112 0 218 l1
192 34 0 c31 0 39 -8 137 -146 57 -81 137 -194 176 -253 40 -58 80 -112 90
-118 20 -15 329 -18 352 -4 19 12 6 41 -18 41 -28 0 -75 43 -128 119 -26 36
-62 84 -80 107 -18 23 -33 44 -33 47 0 4 -26 44 -58 89 -33 46 -67 95 -76 110
l-17 26 58 26 c89 41 122 72 154 142 71 157 15 320 -135 394 -89 44 -149 49
-543 50 -298 0 -343 -2 -343 -15z m630 -66 c96 -29 148 -129 136 -262 -14
-154 -90 -217 -263 -217 l-73 0 0 251 0 251 78 -5 c43 -3 98 -11 122 -18z"/>
<path d="M335 645 c0 -62 1 -65 24 -65 20 0 21 2 11 15 -7 8 -9 22 -6 32 6 14
10 11 29 -15 14 -20 31 -32 45 -32 21 0 20 2 -10 29 -31 28 -32 30 -14 44 10
7 17 22 14 33 -2 15 -13 20 -48 22 l-45 3 0 -66z m62 39 c6 -16 -15 -37 -29
-28 -4 3 -8 14 -8 25 0 23 28 26 37 3z"/>
<path d="M534 673 c-8 -21 -21 -50 -29 -65 -13 -26 -13 -28 5 -28 14 0 18 5
13 16 -5 12 1 15 28 12 21 -2 33 -8 32 -15 -2 -8 7 -13 20 -13 l24 0 -31 65
c-16 36 -34 65 -38 65 -5 0 -16 -17 -24 -37z m36 -29 c0 -8 -7 -14 -15 -14
-17 0 -18 2 -9 24 7 18 24 12 24 -10z"/>
<path d="M678 703 c16 -6 16 -95 0 -111 -9 -9 -4 -12 22 -11 19 0 29 3 23 6
-7 2 -13 16 -13 29 0 19 5 24 25 24 30 0 43 -24 25 -45 -11 -13 -7 -15 21 -14
19 0 28 3 22 6 -8 3 -13 25 -13 58 0 33 5 55 13 58 6 3 -3 6 -22 6 -28 1 -32
-1 -21 -14 18 -21 5 -47 -22 -43 -26 3 -37 36 -16 49 8 6 1 8 -22 8 -19 0 -29
-3 -22 -6z"/>
<path d="M865 645 c0 -55 3 -65 17 -65 15 0 16 4 7 24 -7 16 -8 30 -2 41 8 14
13 11 26 -24 9 -23 21 -41 26 -41 4 0 15 17 23 38 13 32 16 34 23 18 5 -11 3
-26 -4 -37 -10 -17 -8 -19 21 -18 18 0 27 3 21 6 -8 3 -13 25 -13 58 0 33 5
55 13 58 6 3 0 6 -14 6 -22 1 -30 -6 -43 -39 -9 -22 -20 -40 -24 -40 -5 0 -17
18 -27 40 -10 22 -25 40 -34 40 -13 0 -16 -12 -16 -65z"/>
<path d="M1095 645 l-31 -65 23 0 c16 0 21 4 17 15 -5 11 2 15 26 15 24 0 31
-4 26 -15 -4 -11 2 -15 20 -15 23 0 24 1 10 23 -8 12 -20 41 -27 65 -7 23 -17
42 -23 42 -6 0 -25 -30 -41 -65z m45 -1 c0 -8 -7 -14 -15 -14 -17 0 -18 2 -9
24 7 18 24 12 24 -10z"/>
<path d="M1367 698 c-28 -22 -33 -72 -8 -97 27 -27 89 -29 97 -3 3 9 10 25 15
35 8 15 5 17 -23 16 -18 0 -27 -3 -20 -6 6 -2 12 -16 12 -29 0 -33 -34 -32
-56 1 -30 47 4 103 47 77 24 -15 29 -15 29 1 0 18 -70 21 -93 5z"/>
<path d="M1538 703 c16 -6 16 -95 0 -111 -9 -9 -4 -12 23 -11 18 0 28 3 22 6
-8 3 -13 25 -13 58 0 33 5 55 13 58 6 3 -4 5 -23 5 -19 0 -29 -2 -22 -5z"/>
<path d="M1645 645 l0 -65 46 0 c33 0 49 5 53 15 4 13 2 13 -14 5 -40 -22 -50
-13 -50 44 0 34 5 56 13 59 6 3 -1 6 -18 6 l-30 1 0 -65z"/>
<path d="M1805 645 l0 -65 46 0 c32 0 49 5 53 15 6 17 -9 21 -19 5 -3 -5 -15
-10 -26 -10 -16 0 -19 7 -19 54 0 34 5 56 13 59 6 3 -1 6 -18 6 l-30 1 0 -65z"/>
<path d="M1984 663 c-10 -27 -24 -56 -32 -65 -14 -17 -13 -18 14 -17 16 0 23
3 16 6 -21 8 -2 23 30 23 23 0 29 -4 24 -15 -4 -11 1 -15 19 -15 21 0 24 3 15
18 -5 9 -19 38 -30 65 -10 26 -24 47 -29 47 -5 0 -17 -21 -27 -47z m31 -31
c-22 -5 -27 1 -19 23 7 17 8 17 21 -1 12 -17 12 -19 -2 -22z"/>
<path d="M2133 699 c20 -12 24 -88 5 -107 -9 -9 -5 -12 18 -11 16 0 23 3 17 6
-14 5 -18 73 -5 73 4 0 18 -16 31 -35 27 -39 41 -45 41 -15 0 11 -4 20 -9 20
-4 0 -21 18 -36 40 -21 30 -34 40 -54 40 -22 -1 -24 -2 -8 -11z"/>
<path d="M2223 703 c9 -2 23 -2 30 0 6 3 -1 5 -18 5 -16 0 -22 -2 -12 -5z"/>
</g>
</svg>
