<?xml version="1.0" standalone="no"?>
<!DOCTYPE svg PUBLIC "-//W3C//DTD SVG 20010904//EN"
 "http://www.w3.org/TR/2001/REC-SVG-20010904/DTD/svg10.dtd">
<svg version="1.0" xmlns="http://www.w3.org/2000/svg"
 width="260.000000pt" height="260.000000pt" viewBox="0 0 260.000000 260.000000"
 preserveAspectRatio="xMidYMid meet">
<metadata>
Created by potrace 1.11, written by Peter Selinger 2001-2013
</metadata>
<g transform="translate(0.000000,260.000000) scale(0.100000,-0.100000)"
fill="#000000" stroke="none">
<path d="M1765 1919 c-144 -18 -293 -119 -373 -252 -42 -70 -56 -162 -48 -310
5 -97 9 -115 37 -168 62 -115 213 -223 348 -249 129 -24 313 -7 456 42 l70 25
5 137 c5 130 6 139 29 157 13 10 36 19 52 19 19 0 29 5 29 15 0 13 -32 15
-230 15 -198 0 -230 -2 -230 -15 0 -11 11 -15 35 -15 25 0 44 -8 60 -25 24
-23 25 -29 25 -154 l0 -129 -37 -14 c-60 -20 -180 -16 -233 8 -113 52 -165
159 -176 364 -11 192 39 370 124 440 83 69 213 77 328 20 74 -36 129 -95 170
-180 46 -98 54 -83 54 104 0 100 -4 167 -10 171 -6 3 -18 -8 -28 -25 -25 -45
-51 -47 -161 -12 -108 35 -193 44 -296 31z"/>
<path d="M270 1892 c0 -5 17 -12 39 -16 21 -3 49 -14 62 -25 l24 -19 3 -374
c2 -205 0 -388 -3 -406 -9 -48 -37 -72 -85 -72 -29 0 -40 -4 -40 -15 0 -13 33
-15 240 -15 207 0 240 2 240 15 0 11 -11 15 -39 15 -23 0 -48 8 -62 19 -23 19
-24 24 -27 200 l-3 181 34 0 c34 0 39 -6 184 -212 l150 -213 151 -3 c131 -2
152 0 152 13 0 8 -9 15 -20 15 -11 0 -36 15 -54 32 -31 29 -276 369 -276 382
0 3 21 15 48 26 164 73 205 267 82 391 -79 79 -96 82 -472 87 -202 2 -328 0
-328 -6z m521 -53 c79 -27 119 -96 119 -205 -1 -130 -66 -190 -210 -196 l-75
-3 -3 208 -2 207 68 0 c38 0 84 -5 103 -11z"/>
<path d="M515 775 c0 -44 3 -55 16 -55 12 0 15 7 12 28 l-4 27 25 -27 c14 -16
31 -28 37 -28 7 0 3 9 -9 20 -25 24 -27 31 -11 47 20 20 2 43 -33 43 l-33 0 0
-55z m55 25 c0 -11 -7 -20 -15 -20 -8 0 -15 9 -15 20 0 11 7 20 15 20 8 0 15
-9 15 -20z"/>
<path d="M678 783 c-11 -27 -26 -51 -32 -55 -6 -5 -2 -8 11 -8 16 0 21 4 16
16 -5 12 0 15 23 12 17 -2 28 -8 27 -15 -2 -8 7 -13 20 -12 12 0 17 3 10 5 -6
3 -19 27 -28 55 -9 27 -19 49 -21 49 -3 0 -15 -21 -26 -47z m27 -21 c-22 -5
-27 1 -19 23 7 17 8 17 21 -1 12 -17 12 -19 -2 -22z"/>
<path d="M798 823 c7 -3 12 -23 12 -48 0 -25 -5 -45 -12 -48 -7 -3 1 -5 17 -5
17 0 24 2 18 5 -7 2 -13 13 -13 24 0 14 7 19 30 19 23 0 30 -5 30 -19 0 -11
-6 -22 -12 -24 -7 -3 -4 -6 7 -6 18 -1 20 5 20 54 0 49 -2 55 -20 54 -11 0
-14 -3 -7 -6 6 -2 12 -13 12 -24 0 -14 -7 -19 -30 -19 -23 0 -30 5 -30 19 0
11 6 22 13 24 6 3 -1 5 -18 5 -16 0 -24 -2 -17 -5z"/>
<path d="M955 775 c0 -31 4 -55 10 -55 6 0 9 18 8 43 l-3 42 22 -43 22 -43 23
43 22 43 1 -37 c0 -20 -6 -39 -12 -41 -7 -3 1 -5 17 -5 17 0 24 2 18 5 -8 3
-13 23 -13 48 0 25 5 45 13 48 6 3 3 6 -8 6 -14 1 -25 -11 -38 -42 l-19 -42
-21 43 c-29 57 -42 53 -42 -13z"/>
<path d="M1161 804 c-14 -31 -14 -45 0 -20 9 15 13 16 20 5 14 -22 11 -29 -14
-29 -12 0 -28 -9 -35 -20 -10 -17 -10 -20 3 -20 8 0 14 6 13 13 -2 7 9 13 26
15 23 3 28 0 23 -12 -5 -11 -1 -16 12 -16 19 0 19 1 0 40 -10 21 -19 43 -19
49 0 22 -18 19 -29 -5z"/>
<path d="M1372 818 c-22 -29 -23 -57 -2 -78 30 -30 71 -24 81 13 6 22 4 27
-10 27 -14 0 -17 -6 -13 -25 3 -20 0 -25 -17 -25 -24 0 -47 40 -38 65 4 8 17
20 29 25 22 9 22 9 2 9 -12 1 -26 -5 -32 -11z"/>
<path d="M1515 775 c0 -42 3 -55 15 -55 12 0 15 13 15 55 0 42 -3 55 -15 55
-12 0 -15 -13 -15 -55z"/>
<path d="M1605 775 l0 -55 36 0 c26 0 39 5 44 18 5 14 4 15 -6 5 -7 -7 -22
-13 -32 -13 -17 0 -18 6 -15 50 2 39 0 50 -12 50 -12 0 -15 -13 -15 -55z"/>
<path d="M1735 775 l0 -55 36 0 c26 0 39 5 44 18 5 14 4 15 -6 5 -7 -7 -21
-13 -31 -13 -15 0 -18 8 -18 44 0 26 5 46 13 49 6 3 1 6 -13 6 -24 1 -25 -2
-25 -54z"/>
<path d="M1891 804 c-14 -31 -14 -45 0 -20 9 15 13 16 20 5 14 -22 11 -29 -14
-29 -12 0 -28 -9 -35 -20 -10 -17 -10 -20 3 -20 8 0 14 6 13 13 -2 7 9 13 26
15 23 3 28 0 23 -12 -5 -11 -1 -16 12 -16 19 0 19 1 0 40 -10 21 -19 43 -19
49 0 22 -18 19 -29 -5z"/>
<path d="M2030 798 c16 -18 38 -44 48 -58 l20 -25 3 58 c4 52 2 57 -16 56 -11
0 -14 -3 -7 -6 6 -2 12 -19 12 -36 l-1 -32 -32 38 c-18 20 -37 37 -44 37 -7 0
1 -15 17 -32z"/>
<path d="M1435 810 c3 -5 8 -10 11 -10 2 0 4 5 4 10 0 6 -5 10 -11 10 -5 0 -7
-4 -4 -10z"/>
<path d="M2008 723 c6 -2 18 -2 25 0 6 3 1 5 -13 5 -14 0 -19 -2 -12 -5z"/>
</g>
</svg>
